<svg xmlns="http://www.w3.org/2000/svg" width="760" height="484" viewBox="0 0 760 484">
  <g id="Group_2" data-name="Group 2" transform="translate(-267.5 -242)">
    <line id="Line_1" data-name="Line 1" x1="1" y1="321" transform="translate(282.5 404.5)" fill="none" stroke="#3d71ff" stroke-width="30"/>
    <line id="Line_2" data-name="Line 2" x2="189" y2="306" transform="translate(291.5 410.5)" fill="none" stroke="#3d71ff" stroke-width="30"/>
    <line id="Line_3" data-name="Line 3" y1="292" transform="translate(484.5 410.5)" fill="none" stroke="#3d71ff" stroke-width="30"/>
    <line id="Line_3-2" data-name="Line 3" y1="292" transform="translate(493.5 410.5)" fill="none" stroke="#3d71ff" stroke-width="10"/>
    <g id="Ellipse_1" data-name="Ellipse 1" transform="translate(528 242)" fill="#f5b348" stroke="#3d71ff" stroke-width="45">
      <ellipse cx="149" cy="242" rx="149" ry="242" stroke="none"/>
      <ellipse cx="149" cy="242" rx="126.5" ry="219.5" fill="none"/>
    </g>
    <line id="Line_6" data-name="Line 6" y1="2" x2="516" transform="translate(447.5 386.5)" fill="none" stroke="#f5b348" stroke-width="20"/>
    <line id="Line_8" data-name="Line 8" y1="2" x2="516" transform="translate(447.5 398.5)" fill="none" stroke="#f5b348" stroke-width="20"/>
    <line id="Line_7" data-name="Line 7" y1="2" x2="516" transform="translate(447.5 374.5)" fill="none" stroke="#f5b348" stroke-width="20"/>
    <line id="Line_9" data-name="Line 9" x2="18" transform="translate(277.5 417.5)" fill="none" stroke="#3d71ff" stroke-width="20"/>
    <line id="Line_12" data-name="Line 12" x2="37" transform="translate(267.5 410.5)" fill="none" stroke="#3d71ff" stroke-width="20"/>
    <path id="Path_1" data-name="Path 1" d="M0,0H32" transform="translate(467.5 702.5)" fill="none" stroke="#3d71ff" stroke-width="20"/>
    <path id="Path_2" data-name="Path 2" d="M0,0H32" transform="translate(467.5 714.5)" fill="none" stroke="#3d71ff" stroke-width="20"/>
    <line id="Line_10" data-name="Line 10" x2="18" transform="translate(480.5 695.5)" fill="none" stroke="#3d71ff" stroke-width="20"/>
    <g id="Group_1" data-name="Group 1" transform="translate(-9 5)">
      <line id="Line_4" data-name="Line 4" x2="1" y2="302" transform="translate(881.5 405.5)" fill="none" stroke="#3d71ff" stroke-width="30"/>
      <line id="Line_5" data-name="Line 5" x2="169" transform="translate(867.5 702.5)" fill="none" stroke="#3d71ff" stroke-width="30"/>
      <line id="Line_11" data-name="Line 11" x2="18" transform="translate(872.5 702.5)" fill="none" stroke="#3d71ff" stroke-width="30"/>
    </g>
  </g>
</svg>
