<svg xmlns="http://www.w3.org/2000/svg" width="927.332" height="538.5" viewBox="0 0 927.332 538.5">
  <g id="Group_5" data-name="Group 5" transform="translate(-150.5 -150)">
    <line id="Line_9" data-name="Line 9" x2="18" transform="translate(205.5 372.5)" fill="none" stroke="#fff" stroke-width="60"/>
    <line id="Line_12" data-name="Line 12" x2="37" transform="translate(195.5 365.5)" fill="none" stroke="#fff" stroke-width="60"/>
    <g id="Group_3" data-name="Group 3" transform="translate(-15 1)">
      <g id="Group_2" data-name="Group 2" transform="translate(-69 -36)">
        <line id="Line_1" data-name="Line 1" x1="1" y1="321" transform="translate(279.5 395.5)" fill="none" stroke="#fff" stroke-width="60"/>
        <line id="Line_2" data-name="Line 2" x2="189" y2="306" transform="translate(288.5 401.5)" fill="none" stroke="#fff" stroke-width="60"/>
        <line id="Line_3" data-name="Line 3" y1="292" transform="translate(481.5 401.5)" fill="none" stroke="#fff" stroke-width="60"/>
        <line id="Line_3-2" data-name="Line 3" y1="292" transform="translate(490.5 401.5)" fill="none" stroke="#fff" stroke-width="60"/>
      </g>
      <path id="Path_1" data-name="Path 1" d="M0,0H32" transform="translate(395.5 657.5)" fill="none" stroke="#fff" stroke-width="60"/>
      <path id="Path_2" data-name="Path 2" d="M0,0H68.933" transform="translate(382.664 657.5)" fill="none" stroke="#fff" stroke-width="60"/>
      <line id="Line_10" data-name="Line 10" x2="18" transform="translate(408.5 650.5)" fill="none" stroke="#fff" stroke-width="60"/>
    </g>
    <g id="Group_4" data-name="Group 4" transform="translate(11 -14)">
      <line id="Line_4" data-name="Line 4" x2="1" y2="349.461" transform="translate(885.5 346.039)" fill="none" stroke="#fff" stroke-width="60"/>
      <line id="Line_5" data-name="Line 5" x2="194.332" transform="translate(872.5 665.5)" fill="none" stroke="#fff" stroke-width="60"/>
      <line id="Line_11" data-name="Line 11" x2="18" transform="translate(877.5 665.5)" fill="none" stroke="#fff" stroke-width="60"/>
    </g>
    <g id="Rectangle_1" data-name="Rectangle 1" transform="translate(508 150)" fill="#f5b348" stroke="#fff" stroke-width="60">
      <rect width="284" height="531" rx="142" stroke="none"/>
      <rect x="30" y="30" width="224" height="471" rx="112" fill="none"/>
    </g>
    <line id="Line_13" data-name="Line 13" x2="810" transform="translate(150.5 346.5)" fill="none" stroke="#f5b348" stroke-width="60"/>
  </g>
</svg>
