<svg id="Layer_1" data-name="Layer 1" xmlns="http://www.w3.org/2000/svg" viewBox="0 0 120.51 121.81"><defs><style>.cls-1{fill:#fff;}.cls-2{fill:#1a0a43;}.cls-3{fill:#9d9fa1;}.cls-4{fill:#bfe1da;}</style></defs><polygon class="cls-1" points="86.31 57.55 86.31 120.58 120.51 120.58 120.51 109.3 98.12 109.3 98.12 57.55 86.31 57.55"/><path class="cls-1" d="M59.49,0a20.1,20.1,0,0,0-8.8,1.76c-6.6,3.17-8.24,10.1-8.24,16.17V30.66H55V16.52c0-3.19,1.85-5.24,4.71-5.24a4.48,4.48,0,0,1,3.26,1.27,5.46,5.46,0,0,1,1.45,4V30.66H76.89V17.93C76.89,6.53,70.55,0,59.49,0Z"/><path class="cls-1" d="M42.45,57.55v46.69c0,7.76,2.69,13,7.87,15.66a20.16,20.16,0,0,0,9.17,1.91c11.22,0,17.4-6.24,17.4-17.57V57.55H64.38v48.1a5.46,5.46,0,0,1-1.45,4,4.48,4.48,0,0,1-3.26,1.27c-2.86,0-4.71-2-4.71-5.24V57.55Z"/><polygon class="cls-1" points="23.52 57.55 23.52 97.74 22.92 97.74 11.26 58.72 0 58.72 0 121.75 9.51 121.75 9.51 81.55 10.11 81.55 21.77 120.58 33.03 120.58 33.03 57.55 23.52 57.55"/><rect class="cls-2" x="99.29" y="57.55" width="2.34" height="50.58"/><path class="cls-2" d="M57.83,12.91a3,3,0,0,0-1.18,1.23,5.07,5.07,0,0,0-.52,2.38V30.66h2.35V16.52c0-2,.82-3.43,2.36-3.89a3.93,3.93,0,0,0-1.17-.18A3.66,3.66,0,0,0,57.83,12.91Z"/><path class="cls-2" d="M61.83-1.17c-.4,0-.77,0-1.16,0,11.11.48,17.39,7.61,17.39,19.06V30.66h2.35V17.93C80.41,6.08,73.68-1.17,61.83-1.17Z"/><path class="cls-2" d="M59.67,109.72a4.3,4.3,0,0,0,1-.14l.12,0c-1.54-.47-2.36-1.88-2.36-3.89V57.55H56.13v48.1C56.13,108.13,57.37,109.72,59.67,109.72Z"/><path class="cls-2" d="M78.06,57.55h0v46.69c0,5.66-1.54,10.35-4.64,13.62-2.9,3.06-7.17,4.86-12.78,5.08.4,0,.78,0,1.19,0,12.39,0,18.58-7.43,18.58-18.75V57.55Z"/><polygon class="cls-2" points="22.35 91.08 22.35 83.91 14.48 57.55 12.14 57.55 22.15 91.08 22.35 91.08"/><polygon class="cls-2" points="10.68 88.21 10.68 121.75 13.02 121.75 13.02 95.39 10.88 88.21 10.68 88.21"/><rect class="cls-2" x="34.2" y="57.55" width="2.34" height="64.2"/><rect class="cls-2" x="22.35" y="83.91" height="7.18"/><rect class="cls-2" x="10.68" y="88.21" height="33.54"/><polygon class="cls-3" points="99.29 108.13 99.29 57.55 98.12 57.55 98.12 109.3 120.51 109.3 120.51 108.13 99.29 108.13"/><polygon class="cls-3" points="86.31 120.58 86.31 57.55 85.14 57.55 85.14 57.55 85.14 121.75 85.14 121.75 120.51 121.75 120.51 120.58 86.31 120.58"/><path class="cls-3" d="M60.67-1.13c-.39,0-.78,0-1.18,0C53.39-1.17,49,.63,46,3.73c-3.23,3.38-4.73,8.3-4.73,14.2V30.66h1.17V17.93c0-6.07,1.64-13,8.24-16.17A20.1,20.1,0,0,1,59.49,0c11.06,0,17.4,6.53,17.4,17.93V30.66h1.17V17.93C78.06,6.48,71.78-.65,60.67-1.13Z"/><path class="cls-3" d="M59.67,11.28c-2.86,0-4.71,2.05-4.71,5.24V30.66h1.17V16.52a5.07,5.07,0,0,1,.52-2.38,3,3,0,0,1,1.18-1.23,3.66,3.66,0,0,1,1.84-.46,3.93,3.93,0,0,1,1.17.18c1.54.47,2.37,1.88,2.37,3.89V30.66h1.17V16.52a5.46,5.46,0,0,0-1.45-4A4.48,4.48,0,0,0,59.67,11.28Z"/><path class="cls-3" d="M78.06,57.55H76.89v46.69c0,11.33-6.18,17.57-17.4,17.57a20.16,20.16,0,0,1-9.17-1.91c-5.18-2.62-7.87-7.9-7.87-15.66V57.55H41.28v46.69c0,11.67,5.83,18.75,18.21,18.75.39,0,.76,0,1.14,0h0c5.61-.22,9.88-2,12.78-5.08,3.1-3.27,4.64-8,4.64-13.62V57.55Z"/><path class="cls-3" d="M59.67,110.89a4.48,4.48,0,0,0,3.26-1.27,5.46,5.46,0,0,0,1.45-4V57.55H63.21v48.1c0,2-.83,3.42-2.37,3.89l-.12,0a4.3,4.3,0,0,1-1,.14h0c-2.3,0-3.54-1.59-3.54-4.07V57.55H55v48.1C55,108.84,56.81,110.89,59.67,110.89Z"/><polygon class="cls-3" points="22.92 97.74 23.52 97.74 23.52 57.55 22.35 57.55 22.35 57.55 22.35 91.08 22.35 91.08 22.15 91.08 12.14 57.55 12.14 57.55 -1.17 57.55 -1.17 57.55 -1.17 121.75 -1.17 121.75 0 121.75 0 58.72 11.26 58.72 22.92 97.74"/><polygon class="cls-3" points="33.03 57.55 33.03 120.58 21.77 120.58 10.11 81.55 9.51 81.55 9.51 121.75 10.68 121.75 10.68 88.21 10.68 88.21 10.88 88.21 20.89 121.75 20.89 121.75 34.2 121.75 34.2 57.55 33.03 57.55"/><polygon class="cls-4" points="20.34 38.28 20.34 52.51 17.24 52.51 17.24 38.28 11.85 38.28 11.85 35.7 25.71 35.7 25.71 38.28 20.34 38.28"/><path class="cls-4" d="M34.32,50.05c2.14,0,3.59-1.48,3.59-4.19V35.7H41V45.88c0,4.37-2.92,6.91-6.69,6.91s-6.7-2.54-6.7-6.91V35.7h3.1V45.86c0,2.71,1.48,4.19,3.6,4.19"/><path class="cls-4" d="M44.26,35.7h4.83c3.76,0,5.71,1.75,5.71,4.45a3.77,3.77,0,0,1-2.35,3.5,4.2,4.2,0,0,1,3.39,4.07c0,3-2.31,4.79-5.94,4.79H44.26Zm4.65,7.12c1.75,0,2.85-.79,2.85-2.26s-1.1-2.28-2.85-2.28H47.3v4.54Zm.8,7.11c1.78,0,3-.92,3-2.42s-1.19-2.39-3-2.39H47.3v4.81Z"/><path class="cls-4" d="M74.85,44.11a8.59,8.59,0,1,1-8.59-8.68,8.63,8.63,0,0,1,8.59,8.68m-14.07,0a5.49,5.49,0,1,0,11,0,5.49,5.49,0,1,0-11,0"/><path class="cls-4" d="M80.66,52.51H77.55V35.7H82.3c3.7,0,6.35,1.91,6.35,5.21a4.68,4.68,0,0,1-3.29,4.6l5.22,7H87L82.16,46h-1.5Zm-.06-9h1.64c1.91,0,3.2-.94,3.2-2.62s-1.29-2.65-3.2-2.65H80.6Z"/><path class="cls-4" d="M107.47,43.58c0,.3,0,.6,0,.89,0,5.25-3.68,8.32-8.13,8.32a8.68,8.68,0,0,1,0-17.36,8,8,0,0,1,7.09,4.14l-2.6,1.57a5.05,5.05,0,0,0-4.49-2.79,5.58,5.58,0,0,0-5.45,5.76A5.67,5.67,0,0,0,99.41,50a4.71,4.71,0,0,0,4.84-3.8H99.59V43.58Z"/></svg>
