<svg id="Layer_1" data-name="Layer 1" xmlns="http://www.w3.org/2000/svg" viewBox="0 0 1355.24 532.77"><defs><style>.cls-1{fill:#fff;}</style></defs><path class="cls-1" d="M1355.24,362.33c-2.38,8.42-4.54,16.9-7.16,25.24-16.7,53.12-47.4,95.61-96.4,123.25-32.1,18.1-66.85,25.44-103.79,20.39-55-7.5-96.5-36.38-128-80.78-21.26-29.92-34-63.48-38.74-99.7-7.85-59.92,3.1-116,36.81-167a200.72,200.72,0,0,1,55.18-55.56c12.86-8.72,13.11-10,5.29-23.49s-12.38-27.54-9.25-43.29c3.41-17.15,13.91-29.42,27.56-39.38,18.09-13.23,38.66-19.54,60.82-21.27a32.62,32.62,0,0,0,3.86-.79h15c5.07.72,10.16,1.35,15.22,2.19,23.76,3.93,45,13.16,61.69,30.93,14.17,15.08,20,32.91,13.69,53.2-2.55,8.14-7,15.72-10.78,23.42-3.49,7-3.13,9.71,2.84,14.6,1.16.94,2.46,1.7,3.6,2.66,11.43,9.58,23.55,18.48,34.12,28.93,23.33,23.08,39,51.08,49.36,82.06,3.47,10.36,6.11,21,9.13,31.51Z"/><path class="cls-1" d="M668.75,307.75c-.16,2-.38,3.45-.38,4.9,0,12.14.11,24.29-.1,36.42-.06,3.25,1.27,4.77,4,5.93,11.85,5,11.62,5.08,11.88,17.95.1,5-1.28,6.5-6.43,6.43-20.14-.27-40.29-.14-60.44.08-4.18.05-5.65-1.28-5.3-5.41.39-4.62-1.29-10.34.89-13.62s7.9-4.21,12.24-5.71c3.26-1.12,4-3,4-6.24q-.17-60.12,0-120.25c0-3.46-1.29-4.92-4.28-6.14-12-4.93-12-5-11.92-18,0-6.71,0-6.72,6.57-6.73,24.81,0,49.62-.19,74.42.1A92.63,92.63,0,0,1,714.17,200c17.69,4.24,29.59,14.86,33.07,33.2,3.61,19,3,37.61-9,53.85-3.92,5.29-9.77,9.14-15.54,14.38,2.45,4.75,5.47,10.59,8.49,16.42,5.32,10.32,10.39,20.79,16.15,30.86a15.15,15.15,0,0,0,8,6.13c8.05,2.63,11.54,7.06,10.49,15.94-1.08,9.11,1.61,8.54-8.6,8.57-11.32,0-22.64-.1-34,.05-3.43.05-5.38-1.16-6.85-4.31-9.76-20.87-19.8-41.61-29.47-62.52-1.75-3.78-3.91-5.28-7.95-4.91C675.67,308,672.36,307.75,668.75,307.75Zm-.67-55.38q0,13,0,25.94c0,2.17-.2,4.54,3.16,4.44,5.81-.19,11.69.15,17.44-.57,7.9-1,13.53-5.58,15.83-13.3a59.55,59.55,0,0,0,.07-33.47c-1.82-6.55-6.12-11.14-13.18-11.93-6.25-.71-12.57-.65-18.85-1.15-3.59-.29-4.6,1.21-4.53,4.59C668.19,235.4,668.08,243.88,668.08,252.37Z"/><path class="cls-1" d="M420.39,285.19a17.69,17.69,0,0,0,3.18,1.58c24.58,6.43,33.56,25.93,30.77,49.75-3.1,26.41-17.76,36.34-40.8,40.48-9.92,1.78-20.17,2.13-30.28,2.29-21.31.32-42.62,0-63.93.17-4.45,0-5.4-1.32-6-5.91-1.33-10.74,2.2-16.95,13.1-18.75,3.51-.58,4.37-3.05,4.35-6.55q-.17-59.87,0-119.73c0-3.59-1.06-5.8-4.57-6.49-9.84-1.92-12.62-7.92-11.42-17.46.89-7.1.18-7.2,7.51-7.2,23.48,0,47-.38,70.42.19a124.35,124.35,0,0,1,27.48,4.1c14.25,3.65,23.71,13.22,26,27.77a89.63,89.63,0,0,1-.05,28c-1.83,11.26-9.51,19.1-19.88,24-1.8.85-3.57,1.74-5.35,2.63C420.84,284.19,420.81,284.4,420.39,285.19Zm-50.64,41.89c0,7.65.1,15.3-.06,22.95-.06,3.22,1.12,4.6,4.34,4.43,6.64-.36,13.35-.15,19.9-1.07,8.76-1.22,15.61-5.81,16.93-15.09a70,70,0,0,0,.07-20.18c-1.63-10.68-8.48-16.44-19.35-17.52-5.62-.57-11.31-.42-16.95-.8-3.65-.24-5.06,1.07-4.95,4.83C369.9,312.11,369.75,319.6,369.75,327.08Zm0-78v10.47c0,15.83,0,15.83,15.92,15.28,11.65-.4,18.92-5.15,20.56-15.69a74.72,74.72,0,0,0-.54-23.11c-1.18-7.25-6.43-12-14.09-12.8-5.58-.6-11.25-.42-16.86-.84-4.06-.3-5.17,1.49-5.05,5.27C369.9,234.76,369.75,241.9,369.75,249Z"/><path class="cls-1" d="M465.82,289.82c1.4-16.73,1.83-33.06,4.32-49.08,4.31-27.73,16.32-39.52,44.08-44.42a129.63,129.63,0,0,1,52.51,1.51c21.18,5,31.87,19.5,34.86,40a328.09,328.09,0,0,1-.15,99.27c-3.7,23.38-14.75,38.64-43,43.48a140.61,140.61,0,0,1-49.14-.46c-22.65-4.09-35.65-17.89-38.92-40.1C467.9,323.3,467.25,306.33,465.82,289.82Zm45.37-2.35h-.75c0,7.31-.3,14.64.07,21.94.48,9.44,1.05,18.91,2.37,28.26,1.66,11.74,8.85,17.73,20.69,18.2a61.58,61.58,0,0,0,8.48-.27c7.5-.75,12.81-4.71,15.15-11.83,1.53-4.7,2.94-9.67,3-14.55q.78-33.89.68-67.79c0-7.11-1-14.24-1.89-21.31-1.45-11.51-7.51-17.47-19-19.14-14.39-2.1-23.85,3.34-27,15.82a52,52,0,0,0-1.8,11.79C511.05,261.55,511.19,274.51,511.19,287.47Z"/><path class="cls-1" d="M163.6,282c0-17.79-.08-35.59.06-53.38,0-3.51-.84-5.8-4.5-6.51-9.6-1.86-12.39-7.71-11.27-17.1.89-7.5.18-7.59,7.83-7.59,19,0,38,.14,56.95-.1,4.81-.06,6.19,1,6.69,6.21,1,10.1-1.39,16.9-12.25,18.92-2.83.52-3.8,2.53-3.8,5.5.09,34.1,0,68.19.07,102.29a45.75,45.75,0,0,0,.69,8.43c2.05,10.84,9,16.61,20.18,17l1,0c18.79.31,26.12-6.8,26.15-25.56q.07-42.92,0-85.82c0-5.33-.15-10.65.05-16,.12-3.1-.78-5.33-3.91-5.93-10.8-2.08-13.58-8.79-12.33-19,.55-4.53,1.68-6,6.14-6q29.47.23,58.94,0c4.24,0,5.74,1.32,5.68,5.76-.19,14,0,14.06-12.51,19.15-3.2,1.3-4,3.22-4,6.45.1,34.93.2,69.85,0,104.78-.11,19.7-7.44,35.66-26.89,43-8.56,3.22-18,4.78-27.18,5.54-14.79,1.24-29.59.4-43.88-4.51-16.17-5.55-25.85-17-26.78-33.74-1.14-20.54-.27-41.18-.27-61.78Z"/><path class="cls-1" d="M861,203.06c2.73-10.3,10.61-7,17-7.17,11-.27,11.05-.08,11.05,11v44.42c0,7.53,0,7.54-7.78,7.56h-7c-9.39,0-9.35,0-12.48-9-2.52-7.2-5.27-14.32-7.68-21.55-1.07-3.2-2.94-5.33-6.24-5.47-6.76-.3-13.69-1.16-20.28-.12-8.29,1.3-12.7,7.77-13.94,15.7a161,161,0,0,0-2.24,24.77q0,32.14,1.14,64.3c.2,5.5,2.11,11.08,4,16.33,2.81,7.67,9,11.52,17,11.58a111.74,111.74,0,0,0,18.22-1.75c1.24-.2,3-2.63,3-4.06q.38-17.7,0-35.42c0-1.62-1.77-3.84-3.31-4.64a53.32,53.32,0,0,0-10.27-3.79c-2.85-.81-4.17-2.29-4.07-5.31.14-4.15.12-8.31,0-12.47-.08-2.93,1-4.13,4.08-4.11q23.73.18,47.47,0c3.32,0,4.77,1,4.76,4.6q-.17,39.17,0,78.35c0,3.45-1.94,4.56-4.5,5.66a120.65,120.65,0,0,1-51.06,9.64c-11.39-.26-23-1.21-34.05-3.86-20-4.79-29.31-19.78-33-39-4.08-21.39-3.83-43-3-64.61a237.39,237.39,0,0,1,4.77-41c5.9-27.1,21.77-36.4,46.42-38.74C833.33,193.64,847.33,194.76,861,203.06Z"/><path class="cls-1" d="M48.49,223.51c-16.59-1.63-16.59-1.63-22,12.57-2.42,6.36-4.63,12.82-7.4,19a7.09,7.09,0,0,1-4.84,3.57c-4.59.51-9.26.17-14.23.17v-60c1.64-.1,3.23-.28,4.82-.28,43,0,85.92,0,128.88-.11,4.28,0,5.76.94,5.68,5.48-.27,16.46-.1,32.93-.12,49.39,0,1.81-.18,3.62-.32,6.23-6.27,0-12.37.24-18.42-.2-1.25-.09-2.73-2.55-3.39-4.21-3.56-8.94-7.09-17.9-10.21-27-1.39-4.06-3.59-5.47-7.73-5.07-3.59.35-7.23.07-11.46.07v6c0,39.58,0,79.17-.1,118.75,0,4,1,6.33,5,7a9.77,9.77,0,0,1,1.42.46c14.59,4.7,14.54,4.7,13.4,20-.21,2.88-1.2,4.11-4.24,4.1q-35-.09-69.93.07c-3.5,0-4.71-1.26-4.6-4.69.57-18.54-2.94-13.78,14-19.55,3.92-1.33,6-2.84,6-7.84-.3-39.41-.17-78.83-.16-118.25Z"/></svg>
